<svg height="512" width="512" xmlns="http://www.w3.org/2000/svg"><path d="M511.36 255.68c0 141.214-114.473 255.687-255.677 255.687C114.473 511.367 0 396.895 0 255.68 0 114.476 114.473 0 255.684 0 396.888 0 511.36 114.476 511.36 255.68z" fill="#EB7B1D"/><path d="M151.681 325.802c22.033 0 39.885 17.878 39.885 39.898 0 22.039-17.852 39.882-39.885 39.882s-39.885-17.843-39.885-39.882c0-22.02 17.851-39.898 39.885-39.898z" fill="#FFF"/><path d="M111.836 265.13c37.387 0 72.514 14.628 98.939 41.15 26.44 26.575 40.992 61.951 40.992 99.609h57.584c0-109.367-88.597-198.361-197.516-198.361v57.602z" fill="#FFF"/><path d="M111.915 163.025c133.206 0 241.603 108.989 241.603 242.914h57.57c0-165.702-134.199-300.508-299.173-300.508v57.594z" fill="#FFF"/></svg>