<svg xmlns="http://www.w3.org/2000/svg" width="32" height="32"><path fill="#2C2A29" d="M15.912.175C7.125.175 0 7.3 0 16.088S7.125 32 15.912 32s15.912-7.125 15.912-15.912S24.7.175 15.912.175zm9.004 21.217a25.31 25.31 0 0 0 .522-4.243h4.225a13.644 13.644 0 0 1-1.017 4.243h-3.73zM6.909 10.783a25.31 25.31 0 0 0-.522 4.243H2.162c.11-1.465.452-2.888 1.017-4.243h3.73zm15.834 0c.318 1.358.51 2.779.573 4.243h-6.343v-4.243h5.77zm-5.77-2.121v-6.21a4.83 4.83 0 0 1 1.433.709c.882.622 1.724 1.579 2.438 2.768.493.822.92 1.738 1.276 2.735h-5.147v-.002zm-5.992-2.735c.714-1.189 1.556-2.146 2.438-2.768a4.83 4.83 0 0 1 1.433-.709v6.21H9.704a15.35 15.35 0 0 1 1.276-2.735v.002zm3.871 4.856v4.243H8.509c.063-1.464.255-2.885.573-4.243h5.77zM3.179 21.392a13.679 13.679 0 0 1-1.017-4.243h4.225c.058 1.479.238 2.902.522 4.243h-3.73zm5.33-4.244h6.343v4.243h-5.77a22.762 22.762 0 0 1-.573-4.243zm6.343 6.365v6.21a4.83 4.83 0 0 1-1.433-.709c-.882-.622-1.724-1.579-2.438-2.768a15.35 15.35 0 0 1-1.276-2.735h5.147v.002zm5.992 2.735c-.714 1.189-1.556 2.146-2.438 2.768-.47.331-.949.568-1.433.709v-6.21h5.147a15.383 15.383 0 0 1-1.276 2.735v-.002zm-3.871-4.856v-4.243h6.343a22.941 22.941 0 0 1-.573 4.243h-5.77zm8.466-6.365a25.297 25.297 0 0 0-.522-4.243h3.73a13.65 13.65 0 0 1 1.017 4.243h-4.225zm2.098-6.365h-3.179c-.617-1.948-1.471-3.657-2.497-5.02a13.786 13.786 0 0 1 3.803 2.694c.711.712 1.337 1.49 1.873 2.326zM6.161 6.337a13.744 13.744 0 0 1 3.803-2.694c-1.026 1.363-1.879 3.072-2.497 5.02H4.288a13.698 13.698 0 0 1 1.873-2.326zM4.288 23.513h3.179c.618 1.948 1.471 3.657 2.497 5.02a13.877 13.877 0 0 1-5.676-5.02zm21.375 2.326a13.744 13.744 0 0 1-3.803 2.694c1.026-1.363 1.879-3.072 2.497-5.02h3.179a13.728 13.728 0 0 1-1.873 2.326z"/></svg>