<?xml version="1.0" encoding="utf-8"?>
<!-- Generator: Adobe Illustrator 17.0.0, SVG Export Plug-In . SVG Version: 6.00 Build 0)  -->
<!DOCTYPE svg PUBLIC "-//W3C//DTD SVG 1.1//EN" "http://www.w3.org/Graphics/SVG/1.1/DTD/svg11.dtd">
<svg version="1.1" id="Layer_1" xmlns="http://www.w3.org/2000/svg" xmlns:xlink="http://www.w3.org/1999/xlink" x="0px" y="0px"
	 width="64px" height="64px" viewBox="0 0 64 64" enable-background="new 0 0 64 64" xml:space="preserve">
<circle fill="#2C2A29" cx="32" cy="32" r="32"/>
<g>
	<path fill="#FFFFFF" d="M49.147,16.455C48.646,16.226,48.099,16,47.535,16H15.959c-0.564,0-1.111,0.224-1.612,0.453l17.4,20.301
		L49.147,16.455z"/>
	<path fill="#FFFFFF" d="M13,20.159v23.682c0,0.349-0.449,0.691-0.36,1.02l11.199-11.446L12.637,19.912
		C12.633,19.993,13,20.076,13,20.159z"/>
	<path fill="#FFFFFF" d="M47.535,48c0.349,0,0.691-0.153,1.02-0.242L37.324,36.474l-5.577,6.48l-5.577-6.52l-11.231,11.33
		C15.268,47.853,15.61,48,15.959,48H47.535z"/>
	<path fill="#FFFFFF" d="M51,43.841V20.159c0-0.083,0.238-0.166,0.232-0.247L39.779,33.415l11.265,11.446
		C51.134,44.532,51,44.19,51,43.841z"/>
</g>
</svg>
