<?xml version="1.0" encoding="utf-8"?>
<!-- Generator: Adobe Illustrator 17.0.0, SVG Export Plug-In . SVG Version: 6.00 Build 0)  -->
<!DOCTYPE svg PUBLIC "-//W3C//DTD SVG 1.1//EN" "http://www.w3.org/Graphics/SVG/1.1/DTD/svg11.dtd">
<svg version="1.1" id="Layer_1" xmlns="http://www.w3.org/2000/svg" xmlns:xlink="http://www.w3.org/1999/xlink" x="0px" y="0px"
	 width="64px" height="64px" viewBox="-16 -16 64 64" enable-background="new -16 -16 64 64" xml:space="preserve">
<circle fill="#FFFFFF" cx="16" cy="16" r="32"/>
<path fill="#29A7DF" d="M16-16C-1.674-16-16-1.674-16,16s14.326,32,32,32s32-14.326,32-32S33.674-16,16-16z M31.904,7.842
	c0.016,0.352,0.024,0.706,0.024,1.062c0,10.844-8.254,23.35-23.35,23.35c-4.634,0-8.948-1.358-12.58-3.688
	c0.642,0.076,1.296,0.116,1.958,0.116c3.844,0,7.384-1.312,10.192-3.514c-3.592-0.066-6.622-2.438-7.666-5.698
	c0.502,0.096,1.016,0.148,1.544,0.148c0.748,0,1.474-0.1,2.162-0.288c-3.754-0.754-6.582-4.07-6.582-8.046c0-0.034,0-0.068,0-0.104
	c1.106,0.614,2.372,0.984,3.716,1.026c-2.202-1.472-3.65-3.984-3.65-6.83c0-1.504,0.404-2.914,1.112-4.126
	C2.832,6.214,8.878,9.482,15.698,9.824c-0.14-0.6-0.212-1.228-0.212-1.87c0-4.532,3.674-8.206,8.206-8.206
	c2.36,0,4.494,0.996,5.99,2.592c1.87-0.368,3.626-1.05,5.212-1.992c-0.612,1.916-1.914,3.524-3.608,4.54
	c1.66-0.198,3.242-0.64,4.714-1.292c-1.1,1.646-2.49,3.09-4.094,4.248L31.904,7.842z"/>
</svg>
