<svg xmlns="http://www.w3.org/2000/svg" width="32" height="32"><circle fill="#FFF" cx="16" cy="16" r="16"/><path fill="#002855" d="M23.964 12.452c0-.178-.004-.355-.012-.531l.001.001A8.335 8.335 0 0 0 26 9.798a8.212 8.212 0 0 1-2.357.646 4.115 4.115 0 0 0 1.804-2.27 8.198 8.198 0 0 1-2.606.996 4.103 4.103 0 0 0-6.992 3.742 11.65 11.65 0 0 1-8.457-4.287 4.101 4.101 0 0 0 1.269 5.478 4.086 4.086 0 0 1-1.858-.513v.052a4.105 4.105 0 0 0 3.291 4.023 4.099 4.099 0 0 1-1.853.07 4.106 4.106 0 0 0 3.833 2.849 8.23 8.23 0 0 1-6.075 1.699 11.609 11.609 0 0 0 6.29 1.844c7.548 0 11.675-6.253 11.675-11.675z"/></svg>