<svg xmlns="http://www.w3.org/2000/svg" width="32" height="32"><path fill="#2C2A29" d="M26.666 0H5.334C2.4 0 0 2.4 0 5.333v21.333C0 29.6 2.4 32 5.334 32h21.332C29.602 32 32 29.6 32 26.666V5.333C32 2.399 29.602 0 26.666 0zM8 8h16c.286 0 .563.061.817.177L16 18.463 7.183 8.176C7.437 8.06 7.714 7.999 8 8zM6 22V10c0-.042.002-.084.004-.125l5.864 6.842-5.8 5.8A1.94 1.94 0 0 1 6 22zm18 2H8c-.177 0-.35-.024-.517-.069l5.691-5.691L16 21.537l2.826-3.297 5.691 5.691c-.167.045-.34.069-.517.069zm2-2c0 .177-.024.35-.069.517l-5.8-5.8 5.864-6.842c.003.041.004.083.004.125L26 22z"/></svg>