<?xml version="1.0" encoding="utf-8"?>
<!-- Generator: Adobe Illustrator 17.0.0, SVG Export Plug-In . SVG Version: 6.00 Build 0)  -->
<!DOCTYPE svg PUBLIC "-//W3C//DTD SVG 1.1//EN" "http://www.w3.org/Graphics/SVG/1.1/DTD/svg11.dtd">
<svg version="1.1" id="Layer_1" xmlns="http://www.w3.org/2000/svg" xmlns:xlink="http://www.w3.org/1999/xlink" x="0px" y="0px"
	 width="32px" height="32px" viewBox="0 0 32 32" enable-background="new 0 0 32 32" xml:space="preserve">
<path fill="#2C2A29" d="M26.666,0H5.334C2.4,0,0,2.4,0,5.333v21.333C0,29.6,2.4,32,5.334,32h21.332C29.602,32,32,29.6,32,26.666
	V5.333C32,2.399,29.602,0,26.666,0z M8,8h16c0.286,0,0.563,0.061,0.817,0.177L16,18.463L7.183,8.176C7.437,8.06,7.714,7.999,8,8L8,8
	z M6,22V10c0-0.042,0.002-0.084,0.004-0.125l5.864,6.842l-5.8,5.8C6.023,22.35,5.999,22.177,6,22L6,22z M24,24H8
	c-0.177,0-0.35-0.024-0.517-0.069l5.691-5.691L16,21.537l2.826-3.297l5.691,5.691C24.35,23.976,24.177,24,24,24z M26,22
	c0,0.177-0.024,0.35-0.069,0.517l-5.8-5.8l5.864-6.842c0.003,0.041,0.004,0.083,0.004,0.125L26,22L26,22z"/>
</svg>
