<svg xmlns="http://www.w3.org/2000/svg" width="32" height="32"><circle fill="#EAAA00" cx="16" cy="16" r="16"/><g fill="#002855"><path d="M9.066 9.847L16 17.937l6.934-8.09a1.549 1.549 0 0 0-.643-.139H9.708c-.225 0-.442.048-.642.139zm10.183 6.717l4.561 4.561c.035-.131.054-.267.054-.407l-.001-9.437a1.58 1.58 0 0 0-.003-.098l-4.611 5.381z"/><path d="M22.698 22.237l-4.476-4.476L16 20.355l-2.223-2.593-4.476 4.476c.131.035.267.054.407.054h12.583c.14 0 .276-.019.407-.055zM8.135 11.281v9.437c-.001.139.018.275.053.407l4.561-4.561-4.612-5.381-.002.098z"/></g></svg>