<svg xmlns="http://www.w3.org/2000/svg" width="64" height="64"><circle fill="#2C2A29" cx="32" cy="32" r="32"/><path fill="#FFF" d="M52.888 19.247a17.34 17.34 0 0 1-4.99 1.368 8.703 8.703 0 0 0 3.82-4.806 17.346 17.346 0 0 1-5.515 2.109 8.678 8.678 0 0 0-6.343-2.744 8.689 8.689 0 0 0-8.688 8.688c0 .682.077 1.344.224 1.979-7.22-.361-13.621-3.819-17.907-9.078a8.665 8.665 0 0 0-1.175 4.369 8.683 8.683 0 0 0 3.864 7.231 8.647 8.647 0 0 1-3.934-1.087v.109a8.694 8.694 0 0 0 6.968 8.519 8.622 8.622 0 0 1-3.923.148 8.698 8.698 0 0 0 8.115 6.035 17.425 17.425 0 0 1-10.791 3.719c-.7 0-1.391-.043-2.071-.122a24.608 24.608 0 0 0 13.32 3.902c15.98 0 24.718-13.236 24.718-24.719 0-.375-.01-.75-.024-1.126a17.683 17.683 0 0 0 4.332-4.494z"/></svg>