<svg xmlns="http://www.w3.org/2000/svg" width="64" height="64" viewBox="-16 -16 64 64"><circle fill="#FFF" cx="16" cy="16" r="32"/><path fill="#29A7DF" d="M16-16C-1.674-16-16-1.674-16 16s14.326 32 32 32 32-14.326 32-32-14.326-32-32-32zM31.904 7.842c.016.352.024.706.024 1.062 0 10.844-8.254 23.35-23.35 23.35a23.218 23.218 0 0 1-12.58-3.688c.642.076 1.296.116 1.958.116 3.844 0 7.384-1.312 10.192-3.514A8.212 8.212 0 0 1 .482 19.47a8.197 8.197 0 0 0 3.706-.14 8.21 8.21 0 0 1-6.582-8.046v-.104a8.172 8.172 0 0 0 3.716 1.026 8.203 8.203 0 0 1-3.65-6.83c0-1.504.404-2.914 1.112-4.126C2.832 6.214 8.878 9.482 15.698 9.824a8.234 8.234 0 0 1-.212-1.87 8.206 8.206 0 0 1 8.206-8.206 8.19 8.19 0 0 1 5.99 2.592A16.396 16.396 0 0 0 34.894.348a8.23 8.23 0 0 1-3.608 4.54c1.66-.198 3.242-.64 4.714-1.292a16.67 16.67 0 0 1-4.094 4.248l-.002-.002z"/></svg>