<?xml version="1.0" encoding="utf-8"?>
<!-- Generator: Adobe Illustrator 17.0.0, SVG Export Plug-In . SVG Version: 6.00 Build 0)  -->
<!DOCTYPE svg PUBLIC "-//W3C//DTD SVG 1.1//EN" "http://www.w3.org/Graphics/SVG/1.1/DTD/svg11.dtd">
<svg version="1.1" id="Layer_1" xmlns="http://www.w3.org/2000/svg" xmlns:xlink="http://www.w3.org/1999/xlink" x="0px" y="0px"
	 width="64px" height="64px" viewBox="0 0 64 64" enable-background="new 0 0 64 64" xml:space="preserve">
<rect x="39.484" y="24.625" fill="#FFFFFF" width="19.766" height="20"/>
<path fill="#2C2A29" d="M32,0C14.326,0,0,14.326,0,32s14.326,32,32,32s32-14.326,32-32S49.674,0,32,0z M24,49.25h-8v-28h8V49.25z
	 M20,17.25c-2.21,0-4-1.79-4-4s1.79-4,4-4s4,1.79,4,4S22.21,17.25,20,17.25z M52,49.25h-8v-16c0-2.21-1.79-4-4-4s-4,1.79-4,4v16h-8
	v-28h8v4.966c1.65-2.266,4.172-4.966,7-4.966c4.97,0,9,4.478,9,10V49.25z"/>
</svg>
