<?xml version="1.0" encoding="utf-8"?>
<!-- Generator: Adobe Illustrator 17.0.0, SVG Export Plug-In . SVG Version: 6.00 Build 0)  -->
<!DOCTYPE svg PUBLIC "-//W3C//DTD SVG 1.1//EN" "http://www.w3.org/Graphics/SVG/1.1/DTD/svg11.dtd">
<svg version="1.1" id="Layer_1" xmlns="http://www.w3.org/2000/svg" xmlns:xlink="http://www.w3.org/1999/xlink" x="0px" y="0px"
	 width="32px" height="32px" viewBox="0 0 32 32" enable-background="new 0 0 32 32" xml:space="preserve">
<circle fill="#EAAA00" cx="16" cy="16" r="16"/>
<g>
	<path fill="#002855" d="M9.066,9.847L16,17.937l6.934-8.09c-0.2-0.091-0.418-0.139-0.643-0.139H9.708
		C9.483,9.708,9.266,9.756,9.066,9.847z"/>
	<path fill="#002855" d="M19.249,16.564l4.561,4.561c0.035-0.131,0.054-0.267,0.054-0.407l-0.001-9.437
		c0-0.033-0.001-0.066-0.003-0.098L19.249,16.564z"/>
	<path fill="#002855" d="M22.698,22.237l-4.476-4.476L16,20.355l-2.223-2.593l-4.476,4.476c0.131,0.035,0.267,0.054,0.407,0.054
		h12.583C22.431,22.292,22.567,22.273,22.698,22.237z"/>
	<path fill="#002855" d="M8.135,11.281v9.437c-0.001,0.139,0.018,0.275,0.053,0.407l4.561-4.561l-4.612-5.381
		C8.137,11.215,8.135,11.248,8.135,11.281z"/>
</g>
</svg>
