<?xml version="1.0" encoding="utf-8"?>
<!-- Generator: Adobe Illustrator 17.0.0, SVG Export Plug-In . SVG Version: 6.00 Build 0)  -->
<!DOCTYPE svg PUBLIC "-//W3C//DTD SVG 1.1//EN" "http://www.w3.org/Graphics/SVG/1.1/DTD/svg11.dtd">
<svg version="1.1" id="Layer_1" xmlns="http://www.w3.org/2000/svg" xmlns:xlink="http://www.w3.org/1999/xlink" x="0px" y="0px"
	 width="64px" height="64px" viewBox="0 0 64 64" enable-background="new 0 0 64 64" xml:space="preserve">
<circle fill="#2C2A29" cx="32" cy="32" r="32"/>
<path fill="#FFFFFF" d="M52.888,19.247c-1.558,0.691-3.233,1.159-4.99,1.368c1.794-1.075,3.173-2.777,3.82-4.806
	c-1.677,0.996-3.536,1.72-5.515,2.109c-1.586-1.69-3.845-2.744-6.343-2.744c-4.798,0-8.688,3.891-8.688,8.688
	c0,0.682,0.077,1.344,0.224,1.979c-7.22-0.361-13.621-3.819-17.907-9.078c-0.747,1.285-1.175,2.777-1.175,4.369
	c0,3.013,1.533,5.674,3.864,7.231c-1.423-0.044-2.763-0.437-3.934-1.087v0.109c0,4.209,2.995,7.721,6.968,8.519
	c-0.728,0.197-1.498,0.306-2.289,0.306c-0.559,0-1.105-0.056-1.634-0.158c1.105,3.452,4.313,5.963,8.115,6.035
	c-2.972,2.33-6.717,3.719-10.791,3.719c-0.7,0-1.391-0.043-2.071-0.122c3.845,2.463,8.411,3.902,13.32,3.902
	c15.98,0,24.718-13.236,24.718-24.719c0-0.375-0.01-0.75-0.024-1.126C50.249,22.52,51.72,20.99,52.888,19.247z"/>
</svg>
