<?xml version="1.0" encoding="utf-8"?>
<!-- Generator: Adobe Illustrator 17.0.0, SVG Export Plug-In . SVG Version: 6.00 Build 0)  -->
<!DOCTYPE svg PUBLIC "-//W3C//DTD SVG 1.1//EN" "http://www.w3.org/Graphics/SVG/1.1/DTD/svg11.dtd">
<svg version="1.1" id="Layer_1" xmlns="http://www.w3.org/2000/svg" xmlns:xlink="http://www.w3.org/1999/xlink" x="0px" y="0px"
	 width="32px" height="32px" viewBox="0 0 32 32" enable-background="new 0 0 32 32" xml:space="preserve">
<circle fill="#FFFFFF" cx="16" cy="16" r="16"/>
<path fill="#002855" d="M23.964,12.452c0-0.178-0.004-0.355-0.012-0.531l0.001,0.001c0.802-0.579,1.497-1.301,2.047-2.124
	c-0.736,0.326-1.527,0.547-2.357,0.646c0.847-0.508,1.498-1.312,1.804-2.27c-0.793,0.471-1.671,0.812-2.606,0.996
	c-0.748-0.798-1.815-1.296-2.995-1.296c-2.266,0-4.103,1.837-4.103,4.103c0,0.321,0.036,0.635,0.106,0.935
	c-3.41-0.171-6.433-1.805-8.457-4.287c-0.354,0.606-0.556,1.311-0.556,2.063c0,1.423,0.724,2.679,1.825,3.415
	c-0.672-0.021-1.305-0.206-1.858-0.513c0,0.018,0,0.035,0,0.052c0,1.988,1.414,3.646,3.291,4.023
	c-0.344,0.094-0.707,0.144-1.081,0.144c-0.264,0-0.521-0.026-0.772-0.074c0.522,1.63,2.037,2.816,3.833,2.849
	c-1.404,1.101-3.174,1.757-5.096,1.757c-0.331,0-0.658-0.02-0.979-0.058c1.816,1.165,3.973,1.844,6.29,1.844
	C19.837,24.127,23.964,17.874,23.964,12.452z"/>
</svg>
