<svg xmlns="http://www.w3.org/2000/svg" width="64" height="64"><circle fill="#2C2A29" cx="32" cy="32" r="32"/><g fill="#FFF"><path d="M49.147 16.455c-.501-.229-1.048-.455-1.612-.455H15.959c-.564 0-1.111.224-1.612.453l17.4 20.301 17.4-20.299zM13 20.159v23.682c0 .349-.449.691-.36 1.02l11.199-11.446-11.202-13.503c-.004.081.363.164.363.247z"/><path d="M47.535 48c.349 0 .691-.153 1.02-.242L37.324 36.474l-5.577 6.48-5.577-6.52-11.231 11.33c.329.089.671.236 1.02.236h31.576zM51 43.841V20.159c0-.083.238-.166.232-.247L39.779 33.415l11.265 11.446c.09-.329-.044-.671-.044-1.02z"/></g></svg>