<?xml version="1.0" encoding="utf-8"?>
<!-- Generator: Adobe Illustrator 17.0.0, SVG Export Plug-In . SVG Version: 6.00 Build 0)  -->
<!DOCTYPE svg PUBLIC "-//W3C//DTD SVG 1.1//EN" "http://www.w3.org/Graphics/SVG/1.1/DTD/svg11.dtd">
<svg version="1.1" id="Layer_1" xmlns="http://www.w3.org/2000/svg" xmlns:xlink="http://www.w3.org/1999/xlink" x="0px" y="0px"
	 width="32px" height="32px" viewBox="0 0 32 32" enable-background="new 0 0 32 32" xml:space="preserve">
<path fill="#ED8B00" d="M16,0C7.163,0,0,7.163,0,16s7.163,16,16,16s16-7.163,16-16S24.837,0,16,0z M10,24c-1.105,0-2-0.895-2-2
	s0.895-2,2-2s2,0.895,2,2S11.105,24,10,24z M15.5,24c0-4.136-3.364-7.5-7.5-7.5v-3c5.79,0,10.5,4.71,10.5,10.5H15.5z M21.5,24
	c0-3.606-1.404-6.996-3.954-9.546S11.606,10.5,8,10.5v-3c4.407,0,8.551,1.716,11.667,4.833S24.5,19.593,24.5,24H21.5z"/>
</svg>
